<?xml version="1.0" standalone="no"?>
<!DOCTYPE svg PUBLIC "-//W3C//DTD SVG 20010904//EN"
 "http://www.w3.org/TR/2001/REC-SVG-20010904/DTD/svg10.dtd">
<svg version="1.0" xmlns="http://www.w3.org/2000/svg"
 width="260.000000pt" height="260.000000pt" viewBox="0 0 260.000000 260.000000"
 preserveAspectRatio="xMidYMid meet">
<metadata>
Created by potrace 1.14, written by Peter Selinger 2001-2017
</metadata>
<g transform="translate(0.000000,260.000000) scale(0.100000,-0.100000)"
fill="#000000" stroke="none">
<path d="M850 2453 c-14 -7 -31 -11 -37 -8 -7 2 -13 0 -13 -6 0 -6 -5 -7 -12
-3 -8 5 -9 2 -5 -9 3 -9 3 -16 -1 -16 -23 4 -34 -3 -28 -17 3 -8 2 -13 -2 -11
-12 8 -27 -17 -26 -43 1 -14 -3 -28 -10 -32 -7 -5 -7 -8 3 -8 11 0 11 -3 1
-15 -9 -10 -9 -15 -1 -15 6 0 11 -5 11 -11 0 -5 -6 -7 -12 -3 -9 5 -9 2 1 -9
12 -16 8 -22 -12 -18 -5 1 -6 -3 -2 -9 3 -6 10 -8 15 -5 10 6 8 -15 -3 -32 -4
-6 -1 -14 5 -16 10 -4 9 -8 -2 -16 -12 -8 -12 -11 -1 -11 11 0 11 -3 1 -15 -9
-10 -9 -15 -1 -15 6 0 11 -5 11 -11 0 -5 -6 -7 -12 -3 -9 5 -9 2 1 -9 12 -16
8 -22 -12 -18 -5 1 -6 -3 -2 -9 3 -6 10 -8 15 -5 10 6 8 -15 -3 -32 -4 -6 -1
-14 5 -16 10 -4 9 -8 -2 -16 -11 -8 -12 -11 -2 -11 7 0 10 -5 6 -11 -10 -17
-13 -69 -3 -63 16 10 9 -9 -8 -21 -13 -9 -13 -14 -3 -20 9 -6 11 -4 5 5 -5 9
-4 11 4 6 20 -13 0 -28 -30 -24 -17 3 -29 0 -29 -6 0 -7 -3 -7 -8 -1 -8 11
-42 16 -42 6 0 -11 -54 -7 -62 4 -5 6 -8 5 -8 -3 0 -10 -5 -10 -20 -2 -15 8
-20 8 -20 -2 0 -9 -3 -9 -11 2 -8 12 -12 12 -16 2 -4 -10 -8 -10 -19 -1 -11 9
-14 8 -14 -2 -1 -9 -5 -8 -15 5 -14 18 -15 18 -15 2 0 -9 -4 -15 -9 -11 -17
10 -71 12 -71 2 0 -5 -5 -5 -13 2 -8 6 -16 9 -19 6 -2 -3 -23 -6 -46 -7 -23
-1 -42 -5 -42 -10 0 -5 -4 -6 -10 -3 -5 3 -10 1 -10 -6 0 -7 -3 -10 -6 -6 -9
9 -36 -21 -29 -33 3 -5 0 -8 -7 -5 -7 3 -19 -4 -26 -15 -8 -13 -8 -20 -1 -20
5 0 7 -5 4 -10 -4 -6 -10 -8 -14 -6 -4 3 -6 -36 -6 -85 1 -58 -2 -89 -9 -89
-8 0 -8 -3 -1 -8 15 -10 15 -282 1 -282 -8 0 -8 -3 0 -8 13 -9 13 -175 0 -184
-8 -5 -8 -8 0 -8 6 0 10 -39 10 -110 -1 -90 2 -109 13 -105 11 5 12 3 1 -10
-11 -13 -11 -16 0 -13 8 2 14 -4 15 -12 1 -8 6 -14 13 -13 7 2 9 -4 5 -14 -4
-10 -2 -14 4 -10 6 4 13 0 17 -8 3 -8 12 -12 21 -9 8 3 15 1 15 -4 0 -6 9 -9
20 -7 11 2 25 -4 31 -13 10 -16 10 -16 5 0 -4 15 -1 16 19 8 17 -7 25 -6 25 1
0 8 5 7 15 -1 12 -10 15 -10 15 1 0 11 2 11 10 -1 7 -11 10 -11 10 -2 0 7 5
10 10 7 6 -4 8 -12 4 -18 -3 -7 0 -5 8 3 10 11 25 14 61 10 26 -3 47 -2 47 3
0 5 7 4 15 -3 12 -10 15 -10 16 1 0 8 4 5 9 -6 8 -18 9 -18 9 -2 1 15 5 16 21
7 15 -8 20 -8 20 2 0 9 3 9 10 -2 7 -11 10 -11 10 -2 0 7 5 10 10 7 6 -4 8
-12 4 -18 -3 -7 1 -4 9 6 11 14 16 15 20 5 4 -10 6 -10 6 1 1 11 4 11 16 1 12
-10 15 -10 16 1 0 8 4 5 9 -6 8 -18 9 -18 9 -2 1 15 5 16 21 7 15 -8 20 -8 20
2 0 9 3 9 10 -2 7 -11 10 -11 10 -2 0 7 5 10 10 7 6 -4 8 -12 4 -18 -3 -7 0
-5 8 3 10 11 25 14 61 10 26 -3 47 -2 47 3 0 5 7 4 15 -3 12 -10 15 -10 16 1
0 8 4 5 9 -6 8 -18 9 -18 9 -2 1 15 5 16 21 7 15 -8 20 -8 20 2 0 9 3 9 10 -2
7 -11 10 -11 10 -2 0 7 5 10 10 7 6 -4 8 -12 4 -18 -3 -7 0 -5 8 3 7 8 23 14
36 12 13 -2 30 2 39 10 10 7 14 8 10 1 -5 -7 0 -9 13 -6 10 3 22 14 25 24 4
11 11 17 16 14 5 -4 9 3 9 14 0 15 4 19 17 14 11 -4 14 -3 9 6 -4 6 -2 18 4
26 10 12 10 15 -1 15 -10 1 -9 5 4 14 15 12 16 14 2 20 -8 3 -15 11 -14 18 0
10 2 10 6 1 9 -23 18 -14 18 17 0 22 -4 29 -15 25 -9 -3 -7 1 4 10 11 8 15 15
9 15 -8 0 -9 9 -3 30 5 19 5 28 -1 25 -5 -4 -9 -1 -9 4 0 6 4 11 9 11 5 0 7 8
4 19 -3 10 0 22 7 26 8 5 5 14 -11 31 -12 13 -19 27 -16 31 4 3 7 1 7 -5 0 -7
3 -12 8 -12 4 0 7 14 7 30 0 22 -4 29 -15 25 -9 -3 -7 1 4 10 11 8 15 15 9 15
-8 0 -9 9 -3 30 5 17 5 28 0 25 -4 -3 -10 2 -13 10 -4 10 -1 12 10 8 13 -5 14
-3 4 15 -8 15 -8 22 -1 22 5 0 9 5 7 12 -2 13 21 18 38 9 20 -11 40 -10 47 2
6 9 8 9 8 0 0 -7 5 -13 11 -13 5 0 7 6 3 13 -6 9 -4 9 8 -1 12 -10 17 -10 20
-1 3 9 12 7 31 -5 20 -14 24 -22 18 -35 -6 -10 -5 -23 0 -34 7 -12 6 -17 -1
-17 -6 0 -8 -5 -3 -13 12 -20 12 -37 0 -37 -8 0 -7 -3 2 -9 9 -6 10 -11 2 -15
-7 -5 -7 -15 -1 -31 7 -18 6 -25 -3 -25 -8 0 -7 -3 2 -9 11 -7 12 -13 3 -24
-9 -10 -7 -22 7 -49 15 -30 15 -35 3 -30 -9 3 -6 -4 7 -17 12 -12 19 -27 15
-32 -4 -7 1 -9 15 -4 17 5 20 3 14 -11 -5 -14 -3 -16 11 -11 11 5 15 3 10 -5
-5 -8 -2 -9 9 -5 10 3 17 2 17 -3 0 -4 16 -7 35 -5 19 2 32 -1 29 -6 -3 -5 1
-7 8 -5 33 10 78 15 74 8 -3 -5 1 -9 9 -9 8 0 12 4 9 9 -8 13 10 9 34 -7 16
-12 20 -13 17 -2 -8 18 64 15 76 -4 7 -11 9 -10 9 5 0 16 2 17 17 5 9 -8 14
-9 11 -4 -4 6 8 10 27 11 19 0 32 -2 30 -6 -2 -4 2 -7 10 -7 8 0 12 4 9 9 -7
12 44 2 60 -11 14 -11 26 -5 26 13 0 6 -5 4 -10 -4 -5 -8 -10 -10 -10 -4 0 21
14 24 33 7 15 -13 19 -14 13 -3 -4 8 0 6 8 -4 15 -19 16 -19 16 -2 0 16 2 17
17 5 12 -10 15 -11 9 -1 -6 9 -1 11 19 8 15 -3 32 -10 39 -15 14 -11 26 -5 26
13 0 6 -5 4 -10 -4 -5 -8 -10 -10 -10 -4 0 21 14 24 33 7 15 -13 19 -14 13 -3
-4 8 0 6 8 -4 15 -19 16 -19 16 -2 0 16 2 17 17 5 11 -10 14 -10 9 -2 -10 18
10 16 28 -3 15 -14 16 -14 16 2 0 14 2 15 17 3 11 -9 14 -10 9 -2 -5 9 -2 11
8 7 9 -3 13 -11 10 -18 -3 -6 3 -1 13 11 12 16 22 20 32 14 17 -11 43 -3 35
11 -4 6 4 5 16 -2 12 -7 20 -8 17 -3 -6 11 19 34 28 25 4 -4 5 2 3 13 -2 13 2
19 10 17 8 -1 11 2 7 8 -3 5 -1 10 5 10 6 0 8 5 5 10 -3 6 -3 16 2 23 12 19
12 38 1 31 -6 -4 -5 2 1 15 8 14 8 21 1 21 -7 0 -8 6 0 19 13 26 13 34 -2 25
-7 -4 -4 3 6 15 19 21 19 22 1 15 -15 -6 -17 -4 -12 9 4 9 10 24 14 34 5 12 3
14 -8 8 -8 -5 -5 2 5 14 19 21 19 22 1 15 -15 -6 -17 -4 -12 9 4 9 10 24 14
34 5 12 3 14 -8 8 -8 -5 -5 2 5 14 19 21 19 22 1 15 -15 -6 -17 -4 -12 9 4 9
10 24 14 34 5 12 3 14 -8 8 -8 -5 -5 2 5 14 19 21 19 22 1 15 -15 -6 -17 -4
-12 9 4 9 10 24 14 34 5 12 3 14 -8 8 -8 -5 -5 2 5 14 19 21 19 22 1 15 -15
-6 -17 -4 -12 9 4 9 10 24 14 34 5 12 3 14 -8 8 -8 -5 -5 2 5 14 19 21 19 22
1 15 -15 -6 -17 -4 -12 9 4 9 10 24 14 34 5 12 3 14 -8 8 -8 -5 -5 2 5 14 19
21 19 22 1 15 -14 -6 -17 -4 -13 7 22 52 22 52 7 44 -8 -5 -5 2 5 14 19 21 19
22 1 15 -15 -6 -17 -4 -10 12 4 10 8 26 9 34 1 9 5 21 9 27 4 6 2 15 -4 19 -8
4 -9 3 -5 -4 4 -7 2 -12 -3 -12 -14 0 -14 13 1 28 9 9 9 12 -2 12 -10 0 -11 3
-3 11 13 13 5 49 -11 49 -6 0 -4 5 4 10 13 8 13 10 -2 10 -9 0 -20 5 -24 12
-5 7 -2 9 7 4 8 -4 6 -1 -3 7 -10 8 -18 20 -18 26 0 7 -5 9 -10 6 -6 -3 -12 0
-15 7 -3 7 -25 14 -52 16 -26 1 -53 7 -60 14 -11 8 -12 7 -7 -7 6 -15 4 -16
-14 -6 -17 9 -22 9 -22 -1 0 -8 -3 -9 -10 -2 -6 6 -31 8 -61 4 -37 -5 -55 -3
-65 7 -8 8 -14 10 -14 5 0 -5 -15 -12 -34 -14 -19 -2 -32 0 -30 4 3 4 0 8 -5
8 -6 0 -11 -5 -11 -10 0 -7 -6 -8 -14 -3 -8 4 -55 6 -104 3 -55 -3 -89 -1 -90
5 -1 6 -4 27 -7 48 -2 21 -7 43 -11 49 -4 7 -3 8 4 4 7 -4 12 -3 12 3 0 5 -5
13 -10 16 -7 4 -7 13 0 24 6 12 5 22 -1 28 -8 8 -7 13 0 17 6 4 11 12 11 17 0
6 -5 7 -12 3 -7 -5 -8 -3 -3 6 12 20 15 60 4 60 -6 0 -5 9 2 21 8 15 8 19 0
15 -7 -4 -11 1 -11 12 0 10 -11 31 -24 45 -13 14 -21 29 -17 33 3 4 0 4 -8 -1
-7 -4 -16 -4 -20 1 -3 5 -17 15 -30 22 -21 12 -23 12 -18 -2 8 -20 3 -20 -17
0 -9 9 -21 12 -28 8 -19 -12 -48 -12 -48 0 0 6 -4 6 -12 -2 -8 -8 -17 -8 -31
0 -17 9 -19 8 -13 -8 6 -18 5 -18 -7 -2 -11 14 -16 15 -26 5 -9 -9 -14 -9 -21
2 -7 13 -11 13 -26 0 -10 -8 -15 -9 -12 -4 4 6 -9 11 -29 13 -19 1 -32 -2 -29
-6 3 -5 -1 -9 -9 -9 -8 0 -13 3 -11 6 2 3 -12 7 -31 9 -19 1 -32 -2 -29 -6 3
-5 -1 -9 -9 -9 -8 0 -12 3 -10 7 2 3 -5 6 -15 6 -10 0 -16 -4 -14 -8 3 -4 1
-8 -5 -8 -5 0 -11 6 -14 13 -3 9 -7 9 -17 0 -10 -9 -18 -9 -33 -1 -17 9 -19 8
-13 -8 6 -18 5 -18 -7 -2 -11 14 -16 15 -26 5 -9 -9 -14 -9 -21 3 -7 12 -12
12 -21 3 -9 -9 -17 -9 -32 -1 -17 9 -19 8 -13 -8 6 -18 5 -18 -7 -2 -11 14
-16 15 -26 5 -9 -9 -14 -9 -21 2 -7 13 -11 13 -26 0 -10 -8 -15 -9 -12 -4 4 6
-9 11 -30 12 -27 2 -33 0 -22 -7 12 -7 10 -9 -7 -7 -12 0 -20 4 -18 7 7 11
-19 7 -45 -7z m370 -1337 c0 -11 -19 -15 -25 -6 -3 5 1 10 9 10 9 0 16 -2 16
-4z"/>
<path d="M1226 1348 c3 -5 10 -6 15 -3 13 9 11 12 -6 12 -8 0 -12 -4 -9 -9z"/>
<path d="M1490 761 c0 -8 -3 -11 -7 -8 -15 15 -30 -32 -28 -88 1 -33 -2 -68
-7 -77 -5 -12 -5 -18 2 -18 5 0 10 -9 10 -21 0 -11 -4 -17 -10 -14 -6 4 -7 -2
-2 -17 5 -13 8 -93 7 -178 -1 -85 2 -160 7 -166 6 -8 0 -10 -17 -6 -16 3 -24
10 -21 17 2 7 -4 15 -15 18 -10 3 -19 13 -19 22 0 9 -4 14 -9 11 -5 -3 -8 2
-7 12 0 9 -5 16 -12 14 -8 -1 -11 2 -8 7 4 5 -9 25 -27 45 -33 34 -39 58 -23
84 4 7 12 9 18 6 7 -4 8 -2 4 4 -4 7 -2 12 4 12 6 0 8 5 5 10 -3 6 -1 10 5 10
6 0 9 4 6 9 -3 5 1 12 10 15 9 3 14 13 11 20 -4 10 0 14 13 11 13 -3 17 1 13
11 -3 8 1 14 8 14 7 0 9 3 6 7 -4 3 -1 11 6 17 16 13 40 66 29 65 -26 -4 -52
3 -47 12 4 6 -3 5 -15 -3 -19 -11 -23 -11 -27 0 -4 10 -8 9 -17 -4 -10 -13
-15 -14 -21 -4 -6 9 -4 11 5 5 9 -5 11 -4 6 3 -5 9 -15 7 -34 -6 -14 -9 -23
-12 -19 -5 5 8 1 11 -12 10 -11 -1 -17 -6 -14 -15 3 -8 -3 -15 -16 -19 -11 -3
-21 -12 -21 -20 0 -8 -4 -12 -9 -9 -5 4 -8 -2 -6 -11 4 -29 -5 -33 -26 -12
-11 11 -25 17 -30 13 -7 -4 -6 3 1 16 11 20 10 22 -3 17 -10 -4 -17 2 -21 19
-5 20 -11 23 -33 18 -17 -5 -24 -3 -19 4 4 8 -3 8 -26 1 -41 -11 -41 -11 -33
1 3 6 -1 7 -9 4 -9 -3 -13 -11 -9 -18 4 -6 -1 -5 -10 3 -14 11 -17 11 -17 0
-1 -10 -4 -8 -11 4 -8 13 -14 15 -29 7 -10 -5 -27 -10 -37 -10 -15 0 -16 2 -3
10 9 6 10 10 3 10 -6 0 -15 -4 -18 -10 -7 -11 -33 -9 -54 4 -10 6 -12 5 -7 -2
5 -8 -1 -12 -18 -12 -14 0 -28 -5 -32 -12 -5 -7 -3 -8 5 -3 15 9 -8 -35 -24
-47 -6 -5 -4 -8 4 -8 11 0 9 -5 -5 -22 -10 -12 -14 -18 -7 -15 6 4 14 3 18 -3
3 -5 -1 -10 -9 -10 -10 0 -13 -6 -10 -15 4 -8 1 -15 -5 -15 -6 0 -11 -5 -11
-11 0 -5 4 -8 9 -5 5 4 8 -1 7 -9 -2 -15 -21 -22 -21 -7 0 4 -3 12 -6 17 -4 6
-5 18 -3 28 1 10 -3 20 -11 23 -7 3 -11 14 -8 25 3 10 0 25 -6 32 -6 8 -8 17
-4 20 3 4 1 7 -5 7 -7 0 -12 6 -12 14 0 7 -8 20 -17 27 -14 12 -15 12 -9 0 7
-10 3 -12 -14 -6 -15 5 -20 4 -16 -4 5 -7 1 -9 -8 -5 -9 3 -14 9 -12 13 3 4
-15 2 -40 -3 -31 -8 -43 -15 -39 -24 3 -9 0 -12 -9 -9 -10 4 -13 -2 -12 -23 1
-17 -2 -26 -8 -23 -5 4 -7 0 -3 -9 3 -9 2 -19 -3 -24 -5 -5 -11 -23 -13 -41
-6 -39 -15 -55 -28 -48 -5 4 -5 14 1 26 7 13 7 19 0 19 -5 0 -10 9 -10 20 0
11 -6 20 -12 20 -9 0 -8 4 2 10 12 7 12 10 1 10 -7 0 -11 6 -7 15 3 8 1 15 -4
15 -6 0 -10 5 -10 11 0 5 5 7 11 4 6 -4 5 2 -2 13 -7 12 -17 18 -23 15 -5 -4
-7 1 -3 11 6 14 4 15 -16 5 -21 -12 -21 -11 -7 6 10 13 11 16 2 11 -7 -4 -29
-8 -48 -8 -23 0 -32 -4 -27 -11 5 -8 2 -8 -8 0 -12 10 -18 10 -28 0 -10 -9
-11 -8 -6 8 5 18 4 18 -11 -2 -9 -13 -24 -23 -33 -23 -14 0 -14 -2 -1 -10 8
-5 11 -12 7 -16 -4 -4 1 -16 10 -27 10 -10 17 -21 16 -23 -7 -10 -2 -35 5 -30
5 3 9 -1 9 -9 0 -8 -4 -12 -8 -10 -13 9 3 -34 17 -46 10 -8 11 -15 4 -24 -8
-10 -8 -15 1 -21 8 -5 9 -3 4 6 -5 9 -4 11 4 6 9 -6 9 -11 -1 -24 -11 -13 -11
-14 0 -8 10 6 13 3 11 -10 -1 -11 3 -30 8 -44 6 -14 8 -29 6 -33 -3 -5 3 -18
14 -29 12 -15 13 -19 3 -14 -9 5 -8 2 2 -7 10 -8 15 -17 11 -20 -3 -4 0 -14 8
-24 9 -11 10 -14 2 -9 -7 4 -13 2 -13 -3 0 -6 5 -11 11 -11 5 0 7 -5 4 -10 -3
-6 0 -10 9 -10 8 0 17 -6 19 -12 4 -10 6 -10 6 0 1 6 6 12 12 12 5 0 8 -4 5
-9 -3 -5 1 -11 9 -14 8 -4 12 -1 9 7 -3 7 4 12 20 12 14 0 23 -3 20 -7 -2 -4
3 -10 12 -13 8 -3 13 -2 10 3 -3 5 1 12 10 15 8 3 12 2 9 -4 -3 -5 7 -3 22 5
15 8 26 16 23 18 -3 2 2 12 10 22 8 11 10 16 3 12 -8 -5 -8 -1 0 17 7 13 16
22 21 19 5 -4 6 0 0 8 -4 8 -9 20 -10 27 -2 10 1 11 12 1 13 -10 13 -8 5 14
-7 17 -7 28 0 32 5 4 7 11 4 16 -3 5 1 6 10 3 10 -4 13 -13 10 -25 -4 -11 -2
-19 5 -19 6 0 9 -4 5 -9 -3 -6 3 -14 12 -20 12 -7 13 -10 4 -11 -11 0 -11 -3
0 -17 8 -9 9 -14 3 -10 -6 3 -11 0 -11 -8 0 -8 4 -12 8 -10 11 7 19 -23 12
-42 -4 -10 -2 -14 4 -10 6 4 19 0 27 -9 9 -9 16 -11 16 -4 0 6 5 8 10 5 6 -4
8 -12 4 -18 -3 -7 1 -4 9 6 8 9 17 17 21 17 3 0 6 -8 6 -17 0 -15 2 -15 9 -4
5 8 17 16 25 17 9 1 14 -2 10 -7 -3 -5 0 -9 5 -9 6 0 11 6 11 13 0 8 4 7 10
-3 6 -10 10 -11 10 -2 0 6 7 12 16 12 14 0 14 3 4 16 -11 12 -11 15 1 12 9 -2
15 8 17 30 2 17 8 32 13 32 6 0 7 4 4 10 -3 5 -1 10 4 10 6 0 11 5 11 11 0 5
-5 7 -11 3 -6 -3 -3 8 5 25 9 17 16 33 16 36 -1 27 1 35 9 31 5 -3 9 0 8 7 -1
37 4 68 11 63 4 -2 7 11 6 30 -1 21 2 31 8 28 6 -4 8 -1 6 7 -3 8 1 22 9 31
13 15 17 15 29 3 8 -7 14 -18 14 -24 0 -6 5 -11 10 -11 6 0 9 -6 8 -12 -2 -7
2 -12 9 -11 7 2 10 -4 7 -12 -4 -9 0 -15 9 -15 9 0 17 -10 19 -22 2 -17 9 -22
23 -20 15 2 17 1 6 -6 -7 -6 -10 -15 -7 -21 4 -6 0 -14 -8 -17 -9 -3 -13 -10
-10 -15 3 -5 0 -9 -6 -9 -6 0 -16 -13 -21 -30 -6 -16 -19 -32 -30 -35 -11 -4
-17 -11 -14 -16 4 -5 1 -9 -5 -9 -6 0 -8 -5 -4 -12 5 -7 2 -9 -8 -5 -12 4 -14
1 -11 -14 3 -11 1 -19 -5 -17 -5 2 -10 -1 -10 -6 0 -5 -6 -12 -12 -16 -10 -6
-9 -13 4 -31 9 -13 16 -19 16 -13 0 6 7 11 15 11 11 0 12 -4 3 -14 -8 -11 -7
-12 6 -7 9 3 16 11 16 17 0 6 7 2 15 -9 10 -13 13 -14 10 -3 -4 10 0 16 9 16
8 0 13 -3 11 -7 -2 -4 2 -7 10 -7 8 0 12 4 9 9 -3 4 -1 8 4 8 6 0 13 -7 16
-16 3 -8 11 -12 17 -9 6 4 8 14 4 22 -4 12 -2 13 7 5 10 -8 20 -3 42 18 15 16
25 33 22 38 -3 5 5 14 19 20 20 9 25 8 30 -8 4 -11 3 -25 -1 -32 -6 -10 -5
-11 8 -1 19 17 32 4 15 -15 -9 -13 -9 -14 1 -8 6 4 12 4 12 -1 0 -4 11 -13 25
-20 14 -6 23 -7 19 -2 -3 5 -1 9 4 9 6 0 13 -8 17 -18 6 -16 7 -16 21 2 10 14
14 16 14 5 0 -12 2 -12 10 1 6 10 10 11 10 3 0 -7 5 -13 11 -13 5 0 8 4 5 8
-3 5 1 9 9 9 8 0 12 -4 10 -8 -3 -4 2 -9 10 -13 8 -3 14 0 12 7 -1 7 5 11 15
9 12 -2 15 3 11 18 -3 11 0 20 6 20 6 0 11 -5 11 -11 0 -5 6 -7 13 -3 9 6 9 4
-1 -8 -11 -14 -10 -16 5 -14 10 2 21 -2 25 -8 5 -7 8 -6 8 4 0 13 1 13 10 0 8
-13 10 -13 10 -1 0 11 4 9 14 -5 14 -18 15 -18 22 -1 5 15 9 16 15 5 7 -10 9
-10 9 2 0 13 1 13 10 0 7 -12 12 -12 22 -2 15 15 32 16 22 0 -4 -7 -3 -8 5 -4
9 6 9 11 0 22 -9 12 -9 13 3 9 12 -5 15 1 11 30 -2 21 2 44 9 53 10 12 10 14
1 8 -9 -5 -13 -1 -14 11 0 10 -2 26 -4 35 -2 10 1 20 5 23 5 3 7 -4 5 -16 -2
-12 -1 -19 2 -15 10 9 12 56 3 51 -4 -3 -10 4 -13 14 -3 14 -1 18 9 14 8 -3
17 2 20 11 3 9 10 13 15 10 15 -9 109 -11 109 -2 0 5 9 4 20 -2 16 -9 20 -8
21 7 0 16 1 15 8 -2 8 -19 8 -19 15 3 4 12 11 20 16 17 5 -3 12 -1 15 5 4 6 3
9 -2 8 -4 -2 -8 2 -8 7 0 6 4 9 10 7 5 -2 3 5 -6 15 -19 22 -18 49 1 45 10 -3
9 2 -4 17 -10 11 -24 18 -30 14 -6 -4 -5 1 3 10 12 15 12 17 -4 11 -11 -5 -16
-4 -12 3 3 5 0 10 -7 10 -8 0 -12 -7 -9 -16 4 -13 2 -12 -10 2 -14 16 -15 16
-21 1 -5 -13 -10 -14 -18 -6 -6 6 -17 8 -26 5 -10 -4 -13 -2 -8 5 5 8 2 10 -8
6 -9 -3 -13 -11 -10 -18 3 -6 -2 -2 -10 8 -16 20 -16 20 -16 0 0 -13 -3 -15
-8 -6 -5 7 -16 10 -24 7 -19 -8 -33 11 -17 21 8 4 9 3 5 -4 -4 -7 -2 -12 3
-12 15 0 14 27 -1 33 -9 3 -8 10 6 23 10 11 16 14 13 8 -7 -12 101 -13 121 0
6 3 13 2 16 -3 7 -10 25 -9 43 2 6 4 14 1 16 -5 4 -10 6 -10 6 0 1 8 6 10 14
6 6 -4 9 -4 5 0 -3 4 -2 21 2 37 6 20 5 29 -3 29 -7 0 -6 4 3 10 8 5 10 10 4
10 -7 0 -10 13 -9 30 2 27 -5 35 -27 31 -5 0 -8 5 -8 12 0 8 -3 8 -9 -2 -8
-12 -12 -12 -25 -2 -12 11 -16 11 -16 1 0 -9 -4 -9 -13 -2 -8 7 -18 7 -27 2
-9 -5 -19 -5 -27 2 -9 7 -13 7 -13 -2 0 -9 -3 -10 -13 -1 -10 8 -17 7 -25 -1
-8 -8 -15 -8 -27 2 -12 10 -15 10 -15 0 0 -9 -4 -9 -13 -2 -8 7 -18 7 -27 2
-9 -5 -19 -5 -27 2 -9 7 -13 7 -13 -2 0 -10 -3 -10 -15 0 -11 9 -15 9 -15 1 0
-14 -32 -11 -42 4 -5 6 -8 4 -8 -4z m-1283 -206 c0 -8 -4 -12 -9 -9 -5 3 -6
10 -3 15 9 13 12 11 12 -6z"/>
<path d="M1987 756 c4 -5 -1 -7 -10 -3 -10 3 -17 2 -17 -3 0 -6 -5 -10 -11
-10 -5 0 -7 5 -3 12 4 7 3 8 -4 4 -7 -4 -12 -16 -12 -27 0 -10 -6 -19 -12 -19
-9 0 -10 -3 -2 -8 6 -4 11 -14 11 -22 0 -8 2 -19 3 -25 6 -25 -1 -46 -12 -39
-7 4 -6 -1 3 -12 11 -12 14 -26 9 -39 -4 -11 -5 -26 -3 -32 3 -7 -1 -13 -8
-14 -8 0 -5 -4 6 -9 11 -5 14 -9 7 -9 -7 -1 -10 -6 -7 -12 10 -16 13 -59 5
-59 -5 0 -6 -17 -3 -37 6 -49 6 -52 0 -90 -3 -20 0 -33 7 -33 7 0 7 -3 -1 -8
-7 -5 -9 -13 -3 -21 4 -8 5 -24 0 -36 -11 -30 -1 -77 16 -71 7 3 18 -3 23 -12
8 -14 10 -14 11 -2 0 13 1 13 10 0 8 -13 10 -13 10 -1 0 11 4 9 14 -5 14 -18
15 -18 22 -1 5 15 9 16 15 5 7 -10 9 -10 9 2 0 13 1 13 10 0 9 -13 11 -13 20
0 5 8 10 10 10 4 0 -7 7 -15 16 -18 15 -6 15 -4 3 11 -10 11 -10 14 -1 9 19
-11 64 -18 58 -8 -2 4 6 8 19 8 13 0 21 -4 19 -8 -3 -4 -1 -8 5 -8 5 0 12 6
14 13 4 9 8 8 16 -3 8 -12 11 -12 11 -1 0 8 7 11 18 9 11 -3 23 2 30 13 7 11
20 16 32 14 12 -2 24 3 30 15 6 11 16 19 23 17 7 -1 11 4 9 10 -1 7 6 13 15
14 13 0 14 2 4 6 -10 4 -8 9 10 19 13 7 18 13 10 14 -11 0 -11 3 -1 15 6 8 9
19 5 25 -3 5 0 10 7 10 8 0 9 3 3 8 -5 4 -10 23 -10 42 0 22 -6 40 -17 48 -10
7 -18 18 -18 24 0 7 7 3 15 -8 14 -18 15 -17 4 7 -8 20 -17 25 -33 22 -17 -4
-18 -3 -6 6 13 9 8 15 -11 13 -4 -1 -9 7 -12 18 -3 13 -1 17 9 13 9 -3 14 2
14 15 0 11 6 23 13 26 9 5 9 7 0 12 -10 4 -10 8 0 19 15 15 11 75 -5 75 -5 0
-7 3 -5 8 8 13 -12 52 -28 52 -13 0 -19 12 -16 32 0 4 -6 5 -15 1 -9 -3 -19
-1 -23 6 -4 6 -33 12 -64 14 -31 1 -57 7 -57 12 0 7 -3 7 -8 0 -10 -14 -42
-15 -42 -1 0 6 -5 4 -11 -4 -8 -12 -12 -12 -16 -2 -4 10 -8 10 -21 0 -18 -15
-22 -15 -33 4 -7 10 -9 10 -9 0 0 -8 -5 -10 -12 -6 -18 11 -57 11 -51 0z m222
-184 c7 -24 6 -30 -4 -26 -7 3 -15 -2 -18 -10 -3 -8 -14 -13 -24 -11 -10 2
-21 4 -24 4 -3 1 -6 7 -7 14 0 6 -3 21 -5 32 -4 17 0 21 21 20 15 0 33 -4 39
-8 9 -6 11 -3 6 10 -3 10 -3 15 1 12 4 -4 11 -20 15 -37z m-35 -203 c-4 -8 0
-8 15 0 16 9 21 9 21 0 0 -7 3 -10 6 -6 3 3 12 0 19 -6 10 -9 10 -15 1 -26 -9
-12 -8 -13 3 -7 9 6 12 5 9 -5 -3 -8 -11 -13 -18 -11 -11 2 -11 0 -1 -12 10
-12 8 -14 -13 -12 -15 2 -26 -2 -26 -7 0 -7 -4 -7 -12 1 -8 8 -15 9 -25 1 -14
-12 -18 -6 -26 44 -2 15 0 27 4 27 5 0 9 7 9 15 0 8 9 15 21 15 12 0 17 -4 13
-11z"/>
<path d="M1910 650 c0 -5 5 -10 11 -10 5 0 7 5 4 10 -3 6 -8 10 -11 10 -2 0
-4 -4 -4 -10z"/>
<path d="M2315 140 c-3 -5 -1 -10 4 -10 6 0 11 5 11 10 0 6 -2 10 -4 10 -3 0
-8 -4 -11 -10z"/>
</g>
</svg>
